<svg width="107" height="31" viewBox="0 0 107 31" fill="none" xmlns="http://www.w3.org/2000/svg">
<path d="M0 30.2931H7.74909V20.4947H20.7034V14.2482H0V30.2931ZM0 1.71444V7.96091H20.7034V1.71444H0Z" fill="#57FF5A"/>
<path d="M24.7968 -8.39233e-05V30.2933H32.2328V-8.39233e-05H24.7968Z" fill="#57FF5A"/>
<path d="M59.3348 8.165H51.8988V18.8207C51.8988 20.6171 51.5074 21.9236 50.7638 22.7809C50.0202 23.6383 49.0809 24.0465 47.9068 24.0465C46.7327 24.0465 45.8717 23.6791 45.2846 22.9034C44.6585 22.1685 44.3845 20.9437 44.3845 19.2698V8.165H36.9485V20.5355C36.9485 23.9241 37.7312 26.4553 39.375 28.1292C41.0187 29.8439 43.2104 30.6605 45.95 30.6605C47.1632 30.6605 48.3373 30.4563 49.4332 29.9664C50.529 29.5173 51.4683 28.8233 52.251 27.9251V30.293H59.3348V8.165Z" fill="#57FF5A"/>
<path d="M88.8796 29.1906C90.6799 30.1705 92.7542 30.6604 95.0241 30.6604C97.294 30.6604 99.3683 30.1705 101.208 29.1906C103.008 28.2108 104.456 26.8635 105.474 25.108C106.491 23.3932 107 21.3927 107 19.1881C107 16.9835 106.491 15.0238 105.474 13.3091C104.456 11.5943 103.008 10.2471 101.208 9.26723C99.3683 8.28739 97.294 7.79747 95.0241 7.79747C92.715 7.79747 90.6407 8.28739 88.8404 9.26723C87.0401 10.2471 85.5921 11.5943 84.5745 13.3091C83.557 15.0646 83.0482 17.0243 83.0482 19.1881C83.0482 21.3927 83.557 23.3932 84.5745 25.108C85.5921 26.8635 87.0402 28.2108 88.8796 29.1906ZM98.2333 23.1074C97.3723 24.0465 96.3156 24.4956 95.0241 24.4956C93.6934 24.4956 92.6367 24.0465 91.8149 23.1074C90.9539 22.1684 90.5625 20.862 90.5625 19.1881C90.5625 17.555 90.9539 16.2894 91.8149 15.3504C92.6367 14.4522 93.6934 13.9623 95.0241 13.9623C96.3156 13.9623 97.3723 14.4522 98.2333 15.3504C99.0552 16.2894 99.4857 17.555 99.4857 19.1881C99.4857 20.862 99.0552 22.1684 98.2333 23.1074Z" fill="#57FF5A"/>
</svg>
